<?xml version="1.0" encoding="UTF-8"?>
<svg version="1.1" viewBox="0 0 1104 1088" width="276" height="272" xmlns="http://www.w3.org/2000/svg">
<path transform="translate(721,211)" d="m0 0h10l1 51v232l-2 20-5 18-9 19-9 12-9 10-10 10-13 9-14 8-16 6-12 3-7 1-23 1-57-1 5-5 10-7 13-11 7-7 10-13 7-12 8-19 5-21 1-11 1-124 1-57 2-20 5-19 5-12 8-13 12-15 8-7 13-9 16-8 11-4 12-3z" fill="#F9F9F9"/>
<path transform="translate(599,330)" d="m0 0h5l1 71v94l-1 17-4 16-6 15-8 15-12 16-9 10-14 11-13 8-14 7-14 1-52-1 2-4 9-12 8-14 7-15 8-24 5-25 2-19 2-70 2-16 4-15 8-16 8-11 9-10 15-11 16-8 18-6z" fill="#F9F9F9"/>
<path transform="translate(430,494)" d="m0 0h62l1 4-3 24-6 23-8 19-10 18-12 17-10 11h-133l1-9 5-18 9-20 10-16 9-11 12-12 15-11 16-8 16-6 18-4z" fill="#F9F9F9"/>
<path transform="translate(132,687)" d="m0 0h127l6 5 2 3 1 9-4 8-3 3-110 1v71h78l5 3 4 6v10l-6 8-1 1-79 1h-2l1 4v68l-1 18-6 7-3 2h-8l-8-7-2-5v-205l2-5 4-5z" fill="#F9F9F9"/>
<path transform="translate(448,755)" d="m0 0 18 2 12 5 9 6 5 4 9 12 6 15 3 11 1 9v86l-3 5-6 5h-8l-5-3-4-6-1-3-1-85-4-14-6-9-1-3-14-7-8-2h-14l-10 3-11 7-6 8-3 8-1 7-1 88-3 6-6 5h-8l-5-3-4-6-1-3v-136l5-8 5-3h7l7 4 3 7v5l5-3 10-7 12-5z" fill="#F9F9F9"/>
<path transform="translate(624,755)" d="m0 0 18 2 11 4 10 6 10 10 8 14 5 15 2 13v85l-4 7-5 4h-8l-5-3-4-6-1-3-1-83-4-16-6-9-8-7-10-4-5-1h-13l-11 3-10 6-7 9-3 7-1 5-1 91-3 7-6 4h-8l-6-4-4-8v-135l3-7 5-4 2-1 9 1 5 3 2 3 2 9 12-9 11-5 7-2z" fill="#F9F9F9"/>
<path transform="translate(818,756)" d="m0 0 8 1 6 4 3 6 1 86 3 12 4 8 5 6 9 6 11 3h16l11-4 9-6 7-10 2-7 1-9v-83l2-7 9-6h6l8 5 2 4 1 12v114l-1 14-3 6-6 4h-8l-8-7-1-9-15 10-12 5-10 2h-15l-16-4-10-5-10-8-9-12-6-13-3-13-1-8v-87l4-6z" fill="#F9F9F9"/>
<path transform="translate(312,756)" d="m0 0 9 1 5 4 3 7v136l-4 7-5 4h-8l-6-4-4-7v-137l3-6 5-4z" fill="#F9F9F9"/>
<path transform="translate(743,756)" d="m0 0h7l6 4 4 4v142l-3 5-6 4h-7l-5-3-4-4-1-3v-140l6-7z" fill="#F9F9F9"/>
<path transform="translate(310,691)" d="m0 0h10l7 4 4 5 2 7-1 10-4 7-6 5-3 1h-8l-8-5-4-7-1-3v-10l4-8 6-5z" fill="#F9F9F9"/>
<path transform="translate(742,691)" d="m0 0h10l7 4 4 6 2 11-3 9-5 6-6 3h-8l-8-5-4-6-1-3v-11l5-10z" fill="#F9F9F9"/>
</svg>
